<svg width="478" height="677" viewBox="0 0 478 677" fill="none" xmlns="http://www.w3.org/2000/svg">
<path d="M108.635 0C86.4762 0 68.2846 18.6663 68.2846 41.3899V326.831H11.3789C5.09193 326.834 -0.00227547 332.063 7.62514e-07 338.508C0.00227699 341.601 1.19958 344.568 3.33013 346.756L182.094 530.093V665.328C182.096 671.775 187.193 677 193.477 677C195.938 677 198.332 676.181 200.304 674.666L291.353 604.632C294.219 602.428 295.905 598.968 295.905 595.294V530.093L474.669 346.756C479.112 342.197 479.11 334.803 474.664 330.247C472.532 328.059 469.639 326.831 466.623 326.831H409.717V115.67C409.717 112.724 408.631 109.888 406.676 107.728L312.526 3.73513C310.373 1.35632 307.352 0.00233446 304.186 0H108.635ZM108.635 23.3446H285.564V115.665C285.564 122.111 290.661 127.338 296.946 127.338H386.959V326.834H91.0492V41.3899C91.0492 31.1954 98.6973 23.3446 108.635 23.3446ZM308.327 33.3991L372.239 103.993H308.327V33.3991ZM108.635 40.8577C105.492 40.8577 102.945 43.47 102.945 46.6938V158.111C102.899 161.334 105.412 163.984 108.556 164.028C111.699 164.075 114.283 161.498 114.326 158.274C114.326 158.218 114.326 158.164 114.326 158.108V52.53H159.334C162.477 52.5767 165.061 49.9994 165.104 46.7755C165.15 43.5517 162.637 40.9021 159.493 40.8577C159.439 40.8577 159.386 40.8577 159.332 40.8577H108.635ZM166.577 213.822C163.433 213.776 160.85 216.353 160.807 219.577C160.761 222.801 163.274 225.45 166.417 225.495C166.472 225.495 166.524 225.495 166.579 225.495H311.431C314.575 225.541 317.158 222.964 317.202 219.74C317.247 216.516 314.734 213.867 311.591 213.822C311.536 213.822 311.484 213.822 311.429 213.822H166.577ZM166.577 269.42C163.433 269.373 160.85 271.95 160.807 275.174C160.761 278.398 163.274 281.048 166.417 281.092C166.472 281.092 166.524 281.092 166.579 281.092H311.431C314.575 281.139 317.158 278.562 317.202 275.338C317.247 272.114 314.734 269.464 311.591 269.42C311.536 269.42 311.484 269.42 311.429 269.42H166.577ZM38.8598 350.178H439.146L276.48 517.006C274.345 519.195 273.145 522.165 273.145 525.263V589.46L204.858 641.985V525.263C204.858 522.165 203.659 519.195 201.524 517.006L38.8598 350.178Z" fill="#6BBBAE"/>
</svg>
