<svg width="487" height="425" viewBox="0 0 487 425" fill="none" xmlns="http://www.w3.org/2000/svg">
<path d="M454.944 0H32.0539C14.3793 0 0 14.3807 0 32.0595V316.081C0 333.758 14.3793 348.138 32.0539 348.138H179.768L175.668 400.551H124.223C117.471 400.551 112 406.023 112 412.776C112 419.528 117.471 425 124.223 425H186.972H300.026C300.043 425 300.062 425 300.075 425H362.772C369.524 425 374.995 419.528 374.995 412.776C374.995 406.023 369.524 400.551 362.772 400.551H311.33L307.23 348.138H454.944C472.618 348.138 487 333.758 487 316.081V32.0595C487 14.3807 472.618 0 454.944 0ZM38.7619 185.607H186.908L209.981 245.836C211.802 250.593 216.361 253.689 221.39 253.689C221.712 253.689 222.037 253.676 222.363 253.649C227.768 253.219 232.241 249.28 233.356 243.975L258.856 122.534L279.19 177.614C280.963 182.416 285.539 185.607 290.656 185.607H448.236V273.966H38.7619V185.607V185.607ZM299.173 161.158L267.084 74.2382C265.197 69.1285 260.154 65.867 254.722 66.2802C249.288 66.6787 244.775 70.6247 243.655 75.9594L217.96 198.332L206.729 169.011C204.918 164.282 200.378 161.16 195.315 161.16H38.7619V41.768H448.236V161.158H299.173Z" fill="#6BBBAE"/>
</svg>
