<svg width="490" height="447" viewBox="0 0 490 447" fill="none" xmlns="http://www.w3.org/2000/svg">
<path d="M39.5 356.1H200.4V400.2H169C163.8 400.2 159.5 404.4 159.5 409.7V437.2C159.5 442.4 163.7 446.7 169 446.7H320.2C325.4 446.7 329.7 442.5 329.7 437.2V409.7C329.7 404.5 325.5 400.2 320.2 400.2H288.8V356.1H449.7C471.5 356.1 489.2 338.4 489.2 316.6V39.5C489.2 17.7 471.5 0 449.7 0H39.5C17.7 0 0 17.7 0 39.5V316.6C0 338.4 17.7 356.1 39.5 356.1ZM53.9 53.9H435.3V301.9H53.9V53.9ZM241.4 169.2H173.4V101.2C211 101.2 241.4 131.7 241.4 169.2ZM154.1 188.5H222.1C222.1 226 191.7 256.5 154.1 256.5C116.5 256.5 86.1 226.1 86.1 188.5C86.1 150.9 116.5 120.5 154.1 120.5V188.5ZM271.3 170.2H403V194.7H271.3V170.2ZM271.3 127.1H403V151.6H271.3V127.1ZM271.3 213.3H403V237.8H271.3V213.3Z" fill="#6BBBAE"/>
</svg>
