<svg width="489" height="446" viewBox="0 0 489 446" fill="none" xmlns="http://www.w3.org/2000/svg">
<path d="M454.682 187.791C438.74 187.791 425.422 197.804 421.585 211.264H290.909C289.95 206.084 288.114 201.174 285.453 196.714L375.025 115.019C378.379 116.482 382.09 117.37 386.051 117.37C400.243 117.37 411.788 106.84 411.788 93.8963C411.788 80.9526 400.243 70.4227 386.051 70.4227C371.859 70.4227 360.314 80.9526 360.314 93.8963C360.314 97.5093 361.288 100.893 362.892 103.955L274.729 184.363C267.602 178.464 258.68 174.372 248.788 172.848V61.4851C263.546 57.9856 274.525 45.84 274.525 31.2981C274.525 14.0411 259.13 0 240.209 0C221.289 0 205.894 14.0431 205.894 31.3001C205.894 45.8419 216.873 57.9856 231.631 61.4871V172.85C223.828 174.051 216.626 176.838 210.432 180.866L126.106 103.955C127.71 100.893 128.684 97.5093 128.684 93.8963C128.684 80.9526 117.139 70.4227 102.947 70.4227C88.7553 70.4227 77.2102 80.9526 77.2102 93.8963C77.2102 106.84 88.7553 117.37 102.947 117.37C106.908 117.37 110.619 116.482 113.973 115.019L198.299 191.928C193.886 197.579 190.827 204.148 189.51 211.264H67.4131C63.5762 197.804 50.2574 187.791 34.3156 187.791C15.3949 187.791 0 201.832 0 219.089C0 236.346 15.3949 250.387 34.3156 250.387C50.2574 250.387 63.5762 240.373 67.4131 226.913H189.512C191.183 235.935 195.67 244.072 202.138 250.575L113.973 330.983C110.619 329.52 106.908 328.632 102.947 328.632C88.7553 328.632 77.2102 339.162 77.2102 352.106C77.2102 365.049 88.7553 375.579 102.947 375.579C117.139 375.579 128.684 365.049 128.684 352.106C128.684 348.493 127.71 345.109 126.106 342.047L215.678 260.351C220.568 262.779 225.951 264.453 231.631 265.328V384.515C216.873 388.014 205.894 400.16 205.894 414.702C205.894 431.959 221.289 446 240.209 446C259.13 446 274.525 431.959 274.525 414.702C274.525 400.16 263.546 388.016 248.788 384.515V265.328C256.591 264.127 263.793 261.339 269.987 257.312L362.892 342.045C361.288 345.109 360.314 348.493 360.314 352.106C360.314 365.049 371.859 375.579 386.051 375.579C400.243 375.579 411.788 365.049 411.788 352.106C411.788 339.162 400.243 328.632 386.051 328.632C382.09 328.632 378.379 329.52 375.025 330.983L282.12 246.25C286.533 240.598 289.592 234.03 290.909 226.913H421.587C425.424 240.373 438.743 250.387 454.684 250.387C473.605 250.387 489 236.346 489 219.089C489 201.832 473.603 187.791 454.682 187.791ZM386.051 86.0717C390.78 86.0717 394.63 89.583 394.63 93.8963C394.63 98.2095 390.78 101.721 386.051 101.721C381.322 101.721 377.472 98.2095 377.472 93.8963C377.472 89.583 381.322 86.0717 386.051 86.0717ZM102.947 101.721C98.2178 101.721 94.368 98.2095 94.368 93.8963C94.368 89.583 98.2178 86.0717 102.947 86.0717C107.676 86.0717 111.526 89.583 111.526 93.8963C111.526 98.2095 107.676 101.721 102.947 101.721ZM34.3156 234.738C24.8531 234.738 17.1578 227.719 17.1578 219.089C17.1578 210.458 24.8531 203.44 34.3156 203.44C43.7782 203.44 51.4735 210.458 51.4735 219.089C51.4735 227.719 43.7782 234.738 34.3156 234.738ZM102.947 359.93C98.2178 359.93 94.368 356.419 94.368 352.106C94.368 347.792 98.2178 344.281 102.947 344.281C107.676 344.281 111.526 347.792 111.526 352.106C111.526 356.419 107.676 359.93 102.947 359.93ZM223.052 31.3001C223.052 22.6696 230.747 15.651 240.209 15.651C249.672 15.651 257.367 22.6696 257.367 31.3001C257.367 39.9305 249.672 46.9491 240.209 46.9491C230.747 46.9491 223.052 39.9305 223.052 31.3001ZM257.367 414.702C257.367 423.332 249.672 430.351 240.209 430.351C230.747 430.351 223.052 423.332 223.052 414.702C223.052 406.071 230.747 399.053 240.209 399.053C249.672 399.053 257.367 406.071 257.367 414.702ZM240.209 250.387C221.289 250.387 205.894 236.346 205.894 219.089C205.894 211.882 208.686 205.323 213.188 200.026L219.309 194.443C225.115 190.337 232.31 187.791 240.209 187.791C259.13 187.791 274.525 201.832 274.525 219.089C274.525 236.346 259.13 250.387 240.209 250.387ZM386.051 344.281C390.78 344.281 394.63 347.792 394.63 352.106C394.63 356.419 390.78 359.93 386.051 359.93C381.322 359.93 377.472 356.419 377.472 352.106C377.472 347.792 381.322 344.281 386.051 344.281ZM454.682 234.738C445.22 234.738 437.524 227.719 437.524 219.089C437.524 210.458 445.22 203.44 454.682 203.44C464.145 203.44 471.84 210.458 471.84 219.089C471.84 227.719 464.145 234.738 454.682 234.738Z" fill="#6BBBAE"/>
</svg>
