<svg width="498" height="425" viewBox="0 0 498 425" fill="none" xmlns="http://www.w3.org/2000/svg">
<path d="M454.72 6.57427C454.72 2.94527 451.78 0 448.146 0H359.025C355.396 0 352.451 2.94527 352.451 6.57427V70.7128V165.119L454.72 45.2266V6.57427Z" fill="#6BBBAE"/>
<path d="M352.451 354.283V418.426C352.451 422.055 355.396 425 359.025 425H448.146C451.78 425 454.72 422.055 454.72 418.426V297.1V276.917V112.766L352.451 232.668V354.283Z" fill="#6BBBAE"/>
<path d="M193.209 331.032V372.489V418.417C193.209 422.046 196.15 424.991 199.783 424.991H288.904C292.533 424.991 295.478 422.046 295.478 418.417V386.418V257.492L251.378 244.611L193.209 331.032Z" fill="#6BBBAE"/>
<path d="M248.297 198.039L295.478 211.827V141.562V109.563C295.478 105.934 292.533 102.988 288.904 102.988H199.783C196.15 102.988 193.209 105.934 193.209 109.563V155.495V252.531L223.972 206.827C229.297 198.907 239.137 195.357 248.297 198.039Z" fill="#6BBBAE"/>
<path d="M109.08 248.214L145.002 282.856V240.29V186.271C145.002 182.642 142.056 179.697 138.427 179.697H49.3067C45.6733 179.697 42.7324 182.642 42.7324 186.271V254.95V277.653L79.9559 247.065C88.5463 239.992 101.072 240.5 109.08 248.214Z" fill="#6BBBAE"/>
<path d="M42.7324 334.38V349.746V418.425C42.7324 422.054 45.6733 424.999 49.3067 424.999H138.427C142.056 424.999 145.002 422.054 145.002 418.425V343.75L92.6968 293.308L42.7324 334.38Z" fill="#6BBBAE"/>
<path d="M493.607 36.46C489.01 32.5374 482.089 33.0808 478.162 37.6872L314.02 230.116L246.323 210.323C241.738 208.969 236.821 210.761 234.16 214.723L164.745 317.839L102.561 257.877C98.5597 254.016 92.301 253.766 87.997 257.298L3.99982 326.333C-0.672295 330.176 -1.35164 337.075 2.49212 341.76C4.66163 344.399 7.79974 345.757 10.9642 345.757C13.4142 345.757 15.8773 344.933 17.9153 343.268L94.3828 280.431L158.942 342.689C161.274 344.933 164.46 346.02 167.703 345.7C170.925 345.358 173.826 343.605 175.636 340.919L247.861 233.613L314.678 253.148C318.815 254.34 323.286 253.034 326.091 249.747L494.83 51.9183C498.757 47.3119 498.209 40.387 493.607 36.46Z" fill="#6BBBAE"/>
</svg>
