<svg width="488" height="549" viewBox="0 0 488 549" fill="none" xmlns="http://www.w3.org/2000/svg">
<path d="M181.541 236.413C194.582 205.337 217.365 178.028 248.774 159.897C272.978 145.911 300.595 138.507 328.561 138.507C351.788 138.507 374.345 143.826 394.888 153.181V78.9074C394.891 35.3312 306.493 0 197.489 0C88.4535 0 0.0692155 35.3312 0.0692155 78.9074V157.829C0.0255006 199.298 79.9363 233.191 181.541 236.413ZM197.446 19.715C305.895 19.715 375.103 54.7805 375.103 78.8855C375.103 103.034 305.895 138.067 197.446 138.067C88.9744 138.067 19.7664 103.034 19.7664 78.8855C19.7664 54.7805 88.9744 19.715 197.446 19.715ZM0 276.225V197.303C0 237.246 74.3008 270.16 170.638 275.38C166.802 301.626 169.505 328.887 179.289 354.732C78.7815 351.074 0.0255004 317.362 0 276.225ZM316.919 457.315C283.735 467.402 242.396 473.495 197.446 473.495C88.4098 473.495 0.0255003 438.164 0.0255003 394.562V315.633C0.0255003 359.253 88.3879 394.566 197.446 394.566C198.688 394.566 199.897 394.5 201.14 394.5C228.72 430.895 271.025 453.766 316.919 457.315ZM447.593 229.729C409.751 164.254 325.68 141.733 260.129 179.55C194.604 217.364 172.069 301.36 209.886 366.835C247.729 432.332 331.844 454.832 397.369 417.062C462.945 379.27 485.436 295.223 447.593 229.729ZM229.576 355.485C197.988 300.894 216.811 230.763 271.491 199.189C326.172 167.658 396.352 186.434 427.94 241.083C459.531 295.732 440.697 365.863 386.017 397.402C331.315 428.991 261.153 410.193 229.576 355.485ZM477.319 487.24L418.293 521.287L372.841 442.667L431.889 408.599L477.319 487.24ZM470.952 544.427C454.602 553.826 433.798 548.286 424.344 531.945L483.418 497.899C492.846 514.236 487.257 535.025 470.952 544.427Z" fill="#6BBBAE"/>
</svg>
