<svg width="486" height="486" viewBox="0 0 486 486" fill="none" xmlns="http://www.w3.org/2000/svg">
<path d="M34.2252 2.05358C21.2196 5.47611 10.4957 13.5761 5.59012 23.7296C0.342252 34.5676 0 37.876 0 88.073V135.646L3.87886 139.525C10.4957 146.142 19.1661 146.142 25.783 139.639L29.5478 135.874L29.89 88.1871C30.2323 36.0507 30.3464 35.8225 36.9632 32.1718C40.0435 30.4605 46.7745 30.1183 93.549 29.6619C153.557 28.9774 151.047 29.4338 154.584 19.9648C156.523 15.0592 156.523 14.6028 154.698 9.69722C153.557 6.84512 151.276 3.53668 149.45 2.28175C146.37 0.114154 144.545 7.02379e-05 93.8912 0.114154C48.4857 0.114154 40.6139 0.342323 34.2252 2.05358Z" fill="#6BBBAE"/>
<path d="M337.803 2.96627C330.844 8.78456 330.502 20.0789 337.233 26.3535L340.199 29.0915L393.362 29.662C440.821 30.1183 446.982 30.4605 450.176 32.1718C452.115 33.3126 454.169 35.3662 454.739 36.7352C455.196 38.2183 455.766 61.0351 455.994 87.6167L456.451 135.874L460.215 139.639C466.832 146.142 475.503 146.142 482.12 139.525L485.998 135.646V88.4153C485.998 40.0436 485.542 34.2253 481.321 24.3C478.469 17.6831 470.711 9.46906 464.094 6.16062C452.458 0.228248 449.606 7.9675e-05 393.476 7.9675e-05H341.34L337.803 2.96627Z" fill="#6BBBAE"/>
<path d="M213.794 139.754C175.69 145.344 141.807 159.262 111.803 181.508C93.4355 195.084 72.6722 217.103 59.8948 236.497L55.5596 243L60.6934 250.757C78.2623 277.111 104.159 301.525 131.996 317.839C203.755 360.164 296.049 357.768 365.526 312.021C389.598 296.163 414.354 271.521 428.843 248.932L432.608 243L428.843 236.953C422.112 226.457 407.851 209.573 396.785 199.077C362.104 165.879 320.691 146.028 272.89 139.754C257.26 137.7 228.055 137.7 213.794 139.754ZM268.441 170.556C316.356 176.831 358.795 199.876 389.484 236.383L394.96 243L389.484 249.502C351.836 294.452 295.821 319.094 236.725 316.698C193.259 314.987 154.813 300.27 121.728 272.661C112.373 264.79 93.5496 245.053 93.5496 243C93.5496 240.946 112.373 221.21 121.728 213.338C162.799 178.998 215.506 163.597 268.441 170.556Z" fill="#6BBBAE"/>
<path d="M228.396 183.22C217.33 186.186 209.686 190.635 200.674 199.648C187.668 212.539 182.534 224.86 182.534 243C182.534 260.226 187.554 272.776 199.19 285.211C223.376 310.766 262.963 311.336 287.492 286.466C299.699 274.145 305.745 259.656 305.745 243C305.745 215.049 286.465 190.179 259.313 183.106C251.213 180.938 236.382 181.052 228.396 183.22ZM257.716 215.734C267.641 220.639 273.459 229.081 274.6 240.033C275.855 252.583 269.58 264.105 258.058 270.038C245.509 276.54 232.275 274.601 222.464 264.676C210.257 252.583 210.257 233.417 222.464 221.21C232.047 211.627 245.28 209.573 257.716 215.734Z" fill="#6BBBAE"/>
<path d="M8.55631 339.4C6.73096 340.427 3.99294 342.595 2.62393 344.306L0 347.386V396.443C0 448.351 0.228168 451.431 5.59012 462.497C8.55631 468.43 17.1126 476.758 23.7295 480.18C34.2252 485.542 39.4731 485.999 94.1194 485.999C152.873 485.999 150.819 486.341 154.584 476.416C156.523 471.51 156.523 470.825 154.698 466.148C150.933 456.337 154.926 457.021 94.2335 456.337C46.7745 455.88 40.0435 455.538 36.9632 453.827C30.2323 450.176 30.2323 450.062 29.89 396.557C29.5478 350.353 29.4337 347.386 27.3802 344.42C24.8703 340.998 18.7098 337.689 14.6028 337.689C13.2338 337.689 10.4957 338.488 8.55631 339.4Z" fill="#6BBBAE"/>
<path d="M464.551 339.629C462.497 340.655 459.873 342.823 458.618 344.534C456.565 347.386 456.451 350.581 455.994 397.127C455.766 424.393 455.196 447.78 454.739 449.263C454.169 450.632 452.115 452.686 450.176 453.827C446.982 455.538 440.821 455.88 393.362 456.337L340.199 456.907L337.233 459.645C330.502 465.92 330.844 477.214 337.803 483.032L341.34 485.999H393.476C449.606 485.999 452.458 485.77 464.094 479.838C474.362 474.59 482.005 463.752 484.743 450.861C485.542 446.982 485.998 427.359 485.998 396.328C485.998 349.782 485.884 347.615 483.717 344.534C481.207 340.998 475.046 337.689 470.939 337.689C469.57 337.689 466.604 338.602 464.551 339.629Z" fill="#6BBBAE"/>
</svg>
